<?xml version="1.0" encoding="UTF-8"?>
<svg id="Capa_1" xmlns="http://www.w3.org/2000/svg" version="1.1" viewBox="0 0 1623.8 382.5">
  <!-- Generator: Adobe Illustrator 29.0.1, SVG Export Plug-In . SVG Version: 2.1.0 Build 192)  -->
  <defs>
    <style>
      .st0 {
        fill: #fff;
      }
    </style>
  </defs>
  <g>
    <path class="st0" d="M641.3,198c-.5.4-1,.7-1.5,1,.5-.3,1-.7,1.6-1h0s0,0,0,0Z"/>
    <path class="st0" d="M637.8,200.4h0c.6-.4,1.3-.8,1.9-1.2-.6.4-1.3.8-1.9,1.2Z"/>
    <path class="st0" d="M1057,122.3c-3.5,0-7.3,1.9-11.4,5.6-4.2,3.8-6.2,7.1-6.2,9.9s1.8,4.3,5.2,4.3,7.3-1.7,11.5-5c4.1-3.4,6.2-6.9,6.2-10.5s-1.8-4.3-5.2-4.3Z"/>
  </g>
  <path class="st0" d="M1611.3,201.3c-5,9.8-11.9,19.3-20.5,26.2-20.5,16.5-40.5,4.8-55.6-12.6-2.9-3.2-5.8-7-8.4-10.4-5-6.2-10.7-11.9-17.1-16.7-37.1-28.1-86.4-17.6-125.1,3.3-1.9,1-3.7,2.1-5.6,3.1,0,0-.2,0-.2.1-2.4,1.4-5.1,3.1-7.9,4.8,0,0-.2.1-.3.2-3.5,2.2-7.1,4.5-10,6.2-7.6,4.8-14.2,8.8-19.6,12s-11.7,6.4-18.6,9.5c-7,3.1-12.2,4.7-15.7,4.7s-5.2-1.7-5.2-5.1,4.1-6.6,12.4-12.8c8.3-6.2,16.5-13.2,24.7-21,8.2-7.8,12.2-14.8,12.2-21s-.8-4-2.5-5.8c-1.7-1.8-4.8-2.7-9.5-2.7s-15.9,4.5-33.8,13.6c-17.9,9.1-35.1,19.4-51.7,31.1-.5.3-1.3.4-2.3.4,1.3-2.8,6.5-9.4,15.5-19.8,23.3-14,51.1-32.9,83.5-56.7,32.4-23.8,61.6-47.6,87.6-71.3,26-23.7,39-39.7,39-48s-3.1-5.8-9.3-5.8c-11.6,0-33.6,13.1-65.8,39.4-32.2,26.3-65.2,56.1-98.8,89.5-23.2,23-44.9,45.4-65,67,0,0,0,0,0,0-10.9,7.2-22.7,13.4-35.2,18.6-15.3,6.4-27.8,9.5-37.5,9.5s-14.6-3.4-14.6-10.1c0-9.8,8.4-22.2,25.2-37.1,16.8-14.9,31.5-22.3,43.9-22.3s4.3.6,5.8,1.8c1.5,1.2,2.3,2.4,2.3,3.7,0,2.3-1.8,3.6-5.2,3.7-3.5.1-6.7,1.2-9.5,3.3s-4.3,4.4-4.3,7,2.5,3.9,7.4,3.9,9-1.9,12.2-5.8c3.2-3.9,4.9-8,4.9-12.4,0-6.5-4.4-9.7-13.2-9.7-18.1,0-36.9,7.6-56.3,22.7-9.5,7.4-16.7,14.5-21.5,21.2-9.6,6.6-18.8,12.2-27.4,17l-5.4,2.7c-11.4,6.2-18,9.3-19.8,9.3s-1.6-.3-1.6-.8c8.3-9.1,14.1-19.2,17.5-30.5,3.3-11.3,5.4-20.8,6-28.7.6-7.9,1.8-12.6,3.3-14.2,1.5-1.6,2.3-3.1,2.3-4.7s-.7-2.3-2.1-2.3-2.7.8-3.7,2.3c-2,5.5-23,21.2-62.9,47h0c-.5.2-4.6,2.7-12.2,7.5-7.6,4.8-14.2,8.8-19.6,12-5.4,3.2-11.7,6.4-18.6,9.5-7,3.1-12.2,4.7-15.7,4.7s-5.2-1.3-5.2-3.9c0-8,17.5-27.8,52.4-59.4.8-.8,1.2-1.7,1.2-2.7,0-2.3-1.8-3.6-5.4-3.9-3.6-.2-6.1.1-7.4,1.2l-14,12.4c-8.3,7.4-16.6,15.8-24.9,25.3l-14.7,9.6c-5.7,3.9-10.9,5.8-15.5,5.8-7.5,0-11.3-4.3-11.3-12.8v-3.1c9.6-10.9,14.4-20.2,14.4-28s-6.9-13.6-20.6-13.6c-22.3,0-41.3,7.3-57.1,22-7.5,7-13.3,13.9-17.2,20.6-29.8,20.3-50.4,30.5-62,30.5s-6.6-2.4-6.6-7.2,5.2-14,15.5-27.8c3.1-2.6,15.4-11.7,36.9-27.4,21.5-15.7,41.4-30.5,59.8-44.5,18.4-14,38.2-29.5,59.4-46.6,21.2-17.1,38.1-32.3,50.7-45.6,12.5-13.3,18.8-23.1,18.8-29.3s-1.5-3.5-4.7-3.5c-16.8,0-45.4,15.9-85.6,47.6-40.3,31.7-77,66.2-110.3,103.3-17.6,19.6-30.5,36-38.8,49.3-4.1,2.6-11.4,7-21.8,13.4-14.4,8.8-34.2,19.7-59.6,32.6,45.6-45.6,70.2-70,73.8-73.2,3.6-3.2,5.4-5.3,5.4-6.2s-1.5-1.7-4.5-2.5c-3-.8-5.2-1.2-6.6-1.2s-10,7.4-25.8,22.1c-10.9,10.1-24.3,20.3-40.4,30.5-16.1,10.2-28,15.3-35.7,15.3s-5-.7-5-1.9c0-2.1,3.9-6.2,11.7-12.4,23.3-18.6,34.9-32,34.9-40s-3.4-11.3-10.1-11.3c-9.8,0-31.4,10.9-64.8,32.7h0c-.5.3-1,.7-1.6,1,0,0,0,0,0,0-.6.4-1.3.9-1.9,1.3-32.3,22-54.4,33-66.4,33s-2.7-1-2.7-3.1,1.2-4.9,3.5-8.3c2.3-3.5,5.7-7.6,10.1-12.2,4.4-4.7,8.6-9,12.4-13,3.9-4,8.6-8.7,14.2-14.2,5.6-5.4,12.5-12.5,21-21.2,8.4-8.7,19.9-20.2,34.4-34.6,14.5-14.4,27.1-26.7,37.7-37.1,10.6-10.4,21.4-20.6,32.2-30.7,10.9-10.1,19.3-17.9,25.4-23.5,6.1-5.6,12.4-11.2,18.8-16.9,6.5-5.7,10.3-9.1,11.5-10.3,1.2-1.2,1.8-2.3,1.8-3.3,0-2.8-2.3-4.3-7-4.3s-7.8.8-9.3,2.3l-162.3,157.3c-1.8,1.8-3.4,3.2-4.7,4.3-6.7-3.9-14.9-5.8-24.5-5.8-28.2,0-50.9,7.6-68.2,22.9-6.9,6.2-12.5,12.2-16.6,18-2,1.3-5.2,3.2-9.4,5.9-7.6,4.8-14.2,8.8-19.6,12s-11.7,6.4-18.6,9.5c-7,3.1-12,4.7-15,4.7s-4.5-.9-4.5-2.7c0-3.1,8.3-10.6,24.8-22.5,6.2-4.7,11.9-10.2,17.1-16.5,5.2-6.3,7.8-12.5,7.8-18.4s-3.5-8.9-10.5-8.9c-17.9,0-41.5,10.2-71.1,30.7,8.3-11.1,12.4-19.6,12.4-25.4s-2.7-8.7-8.2-8.7-13.2,3.1-23.3,9.3c-5.2,3.4-10,6.5-14.4,9.5-4.4,3-10,6.8-16.7,11.5-6.7,4.7-12,8.3-15.9,10.9h0c-32.3,22-54.4,33-66.4,33s-2.7-1-2.7-3.1c0-5.2,12.6-20.1,37.7-44.7,10.1-10.1,16.2-16.5,18.3-19.2,2.1-2.7,3.1-4.3,3.1-4.9s-.1-1-.4-1.4c-.3-.4-3.9-1-10.9-1.7-.5,0-3.4,2.1-8.5,6.2-6.7-3.9-14.8-5.8-24.1-5.8-28.2,0-50.9,7.6-68.2,22.9-17.2,15.3-25.8,29.6-25.8,43.1s1.2,7.9,3.6,9.6c-28.2,1.7-55-9-75.8-31.8-6.9-7.8-13.3-15.9-21-23-7.9-7.4-16.6-14-26.3-18.9-21-10.8-46.5-10.2-64.3,6.6-2.8,2.4-3.2,6.8-.6,9.5,2.5,2.6,6.6,2.8,9.2.3,3.2-3.1,7-5.5,11.1-7.2,22.3-9.7,46.2,3.2,63.3,18.2,7.7,6.5,14.3,14.3,21.5,21.5,7.6,7.5,16.3,14,25.8,18.9,21.5,11.3,47.5,13.4,70.8,6.6,16.3-2.9,37.5-14.1,63.7-33.4-8,10.6-12,19.2-12,25.8s3.5,9.9,10.5,9.9c14.2,0,38.6-11.3,73-33.8h0c7.1-4.6,15.5-10.1,25-16.5,11-7.4,19.2-12.8,24.5-16.1,5.3-3.4,8.8-5,10.5-5s2.5.6,2.5,1.9c0,5.4-8.9,17.3-26.8,35.7-17.9,18.4-26.8,28-26.8,28.7,0,2.3,2.1,3.5,6.4,3.5s7.2-.8,8.7-2.3c23-23.3,44-40.1,62.9-50.5,18.9-10.3,33.1-15.5,42.7-15.5s4.3.6,4.3,1.9c0,4.4-8.9,13.3-26.8,26.8-6.5,5.2-12.5,10.8-18,16.9-5.6,6.1-8.3,11.3-8.3,15.7,0,6.5,3.4,9.7,10.1,9.7,12.7,0,34-9.6,63.9-28.7-2.2,5-3.3,9.9-3.3,14.7,0,7.5,3.1,11.3,9.3,11.3,17.3-.3,41.3-11.6,71.8-34.2-8.3,10.4-12.4,19-12.4,26s3.5,9.7,10.5,9.7c14.2,0,38.6-11.3,73-33.8h0c2-1.3,4.5-2.9,7.6-4.8,5-3.2,8.9-5.6,11.5-7.2,2.6-1.6,9-5.4,19.2-11.7,10.2-6.2,17.5-9.3,21.9-9.3s3.1,1,3.1,2.9-3.8,6-11.3,12.2c-23.3,18.9-35,32.8-35,41.5s4.5,9.7,13.6,9.7,25.2-7.6,48.5-22.9c-7.2,7.2-15.7,16-25.4,26.4-9.7,10.3-16.8,17.7-21.2,22.1-1,.5-2.5,1.2-4.3,1.9-40.4,19.7-72.6,36.8-96.7,51.3-15.3,9.3-26.8,18.4-34.6,27.4-7.8,8.9-11.7,17.7-11.7,26.2s3.8,12.8,11.3,12.8c13.5,0,33.7-11.3,60.8-34,27.1-22.7,59.7-53.1,98-91.5,29.5-14.2,53.3-26.9,71.5-38,3.5-2.4,8.7-5.6,15.5-9.7-3.9,7.5-5.8,13.8-5.8,18.6s3.5,9.7,10.5,9.7c12.9,0,33.9-9.2,63.3-27.6-1.6,4.3-2.3,8.6-2.3,12.8,0,10.6,5.6,15.9,16.7,15.9,18.6,0,38.3-9.2,59-27.6,2.6,8,7.8,12,15.7,12s16-2.7,24.3-8.2l2.7-1.7c-4.6,6.6-7,11.8-7,15.7,0,6.5,4,9.7,11.8,9.7s19.5-3.9,34.8-11.7c9.2-4.7,17.7-9.3,25.7-14-.6.5-1.1,1.1-1.6,1.8-2.1,2.7-3.1,6.3-3.1,10.7s2,8.4,6,12c4,3.6,10.3,5.4,18.8,5.4,19.6,0,47.2-10.9,82.6-32.8-1.5,3.7-2.2,7.2-2.2,10.6,0,11.4,7.8,17.1,23.3,17.1s25.8-3.2,42.5-9.7c8.5-3.3,16.7-7,24.3-11.2-4.5,5-8.9,9.9-13.3,14.7-1,1.3-1.6,2.3-1.6,3.1,0,1.5,2.1,2.3,6.2,2.3s6.7-.5,7.8-1.6l14-11.6c8-7,25.2-17.9,51.7-32.8,26.4-14.9,42.6-22.3,48.5-22.3s2.7.5,2.7,1.5c0,2.9-4.2,7.5-12.6,14-8.4,6.5-16.8,13.8-25.2,21.9-8.4,8.2-12.6,15.6-12.6,22.3s3.4,10.1,10.1,10.1c13.9,0,40.9-13.4,75.6-36.5,0,0,0,0,0,0,8.9-5.3,18.5-9.9,28.2-13.6,40.9-16.1,86.6-16.2,115,21.9,1.6,2.2,3.8,5.2,5.5,7.3,9,11.5,19.7,22.2,34.1,27,28,9.3,52.5-15.2,64.4-38,3.6-8.1-7.9-13.4-11.8-5.5ZM1387.9,68.7c40.8-37,66.3-55.5,76.7-55.5s3.9.9,3.9,2.7c0,8.3-22.4,31.1-67.2,68.4-44.8,37.3-85.8,67.9-123.1,92,32.4-34.7,68.9-70.5,109.7-107.6ZM931,67.6c47.6-41.7,77.9-62.5,90.9-62.5s1.9.4,1.9,1.2c0,8.3-26.2,33.8-78.4,76.7-52.3,42.8-95.7,76-130.1,99.6,29.5-34.9,68.1-73.3,115.7-114.9ZM239.6,214.9c-16.4,10-29.6,15-39.4,15s-4.3-1.6-4.3-4.7,2.6-8,7.8-14.8c5.2-6.7,11.7-13.6,19.4-20.6,7.8-7,17-13,27.6-18.1,10.6-5.1,19.2-7.6,25.6-7.6s11.6.5,15.3,1.5c3.8,1,5.6,2.3,5.6,3.9s-5.5,7-16.5,16.3c-11,9.3-24.7,19-41.2,28.9ZM541.5,215.7c-16.1,9.5-28.6,14.2-37.7,14.2s-4.3-1.6-4.3-4.7,2.6-8,7.8-14.8c5.2-6.7,11.7-13.6,19.4-20.6,7.8-7,16.9-13,27.6-18.1,10.6-5.1,19.1-7.6,25.6-7.6s11.6.5,15.3,1.5c3.8,1,5.6,2.4,5.6,4.1s-5.9,7.4-17.7,17.1c-11.8,9.7-25.7,19.3-41.7,28.7ZM541.5,377.1c-5.7,0-8.5-2.9-8.5-8.5s1.6-11.1,4.7-16.1c3.1-5,8.1-10.3,14.9-15.7,6.9-5.4,15.8-11.9,26.8-19.4,11-7.5,39.4-22.3,85.2-44.3-68.1,69.4-109.1,104.1-123.1,104.1ZM925.2,203.9v.4c-17.6,18.6-35.7,28-54.4,28s-7.4-2.7-7.4-8.1c0-10.9,7.4-23.5,22.1-37.9,14.8-14.4,31.7-21.6,50.9-21.6s5.8,1.4,6.6,4.3c-11.9,10.9-17.9,22.5-17.9,35ZM1051.8,238c-3.4,0-6.5-1.2-9.5-3.7-3-2.5-4.5-4.6-4.5-6.4s.7-3.1,1.9-3.9c4.2-2.1,6.2-4.4,6.2-7,0-4.1-1.9-6.2-5.8-6.2s-2.1.2-3.1.5c3.5-2.1,6.9-4.2,10.2-6.3,0,0,.1,0,.2-.1,9.1-5.5,25.6-16.3,49.5-32.6v1.2c-2.3,14.2-7.6,28.5-15.7,42.9-8.2,14.4-17.9,21.5-29.3,21.5Z"/>
  <path class="st0" d="M1378.8,194.3c-2.4,1.4-5.1,3.1-7.9,4.8,2.6-1.7,5.2-3.3,7.9-4.8Z"/>
</svg>